<svg width="131" height="20" viewBox="0 0 131 20" fill="none" xmlns="http://www.w3.org/2000/svg">
<g clip-path="url(#clip0_36_4856)">
<path d="M32.0925 17.625V2.3125H35.8497L36.2254 17.625H32.0925ZM42.4873 17.625H39.5129L37.1021 10.8438L34.5973 2.34375H37.4465L40.3583 10.6875L41.2663 13.9688H40.8905L41.7985 10.6875L44.7103 2.34375H47.4343L44.8982 10.9063L42.4873 17.625ZM45.8062 17.625L46.1819 2.3125H49.9391V17.625H45.8062Z" fill="#243535"/>
<path d="M59.9269 10.1875V12.3125C59.0815 12.3125 58.3614 12.375 57.7978 12.4688C57.2342 12.5625 56.7959 12.6875 56.4828 12.875C56.1697 13.0625 55.9505 13.25 55.8253 13.4687C55.7 13.6875 55.6374 13.9375 55.6374 14.1875C55.6374 14.5625 55.7627 14.8438 56.0131 15.0625C56.2636 15.2812 56.608 15.4062 57.0464 15.4062C57.4534 15.4062 57.8604 15.2812 58.2361 15.0625C58.6119 14.8438 58.8936 14.5312 59.1128 14.125C59.332 13.7188 59.4259 13.2812 59.4259 12.75H60.5844C60.5218 13.6875 60.3652 14.5 60.0521 15.1562C59.7703 15.8125 59.3946 16.3438 58.9563 16.7812C58.5179 17.2187 57.9857 17.5 57.4221 17.7188C56.8585 17.9062 56.2949 18 55.7 18C54.9486 18 54.2911 17.875 53.6962 17.5937C53.1013 17.3437 52.6317 16.9375 52.2873 16.4062C51.9429 15.875 51.755 15.2188 51.755 14.4688C51.755 13.6562 52.0055 12.9063 52.4751 12.3125C52.9448 11.6875 53.6962 11.2187 54.6981 10.875C55.5435 10.5625 56.3889 10.375 57.2029 10.3125C58.017 10.2188 58.925 10.1875 59.9269 10.1875ZM56.0758 9.5H52.162C52.2873 8.5625 52.6317 7.78125 53.1326 7.125C53.6336 6.46875 54.2911 5.96875 55.1052 5.59375C55.9192 5.21875 56.8585 5.03125 57.923 5.03125C59.1128 5.03125 60.1147 5.25 60.8975 5.6875C61.7115 6.125 62.3064 6.6875 62.7134 7.4375C63.1205 8.1875 63.3396 9 63.3396 9.96875V14.5938C63.3396 15.4062 63.3709 16.0312 63.4336 16.5C63.4962 16.9687 63.5588 17.3438 63.6527 17.625H59.6451C59.5511 17.3125 59.4885 16.9375 59.4572 16.4688C59.4259 16 59.4259 15.5312 59.4259 15.0312V9.90625C59.4259 9.34375 59.2694 8.90625 58.9876 8.625C58.7058 8.34375 58.2988 8.1875 57.7352 8.1875C57.2342 8.1875 56.8272 8.3125 56.5767 8.5625C56.3262 8.8125 56.1697 9.125 56.0758 9.5Z" fill="#243535"/>
<path d="M65.5313 4.375V1.40625H69.445V4.375H65.5313ZM65.5313 17.625V5.4375H69.445V17.625H65.5313Z" fill="#243535"/>
<path d="M71.5115 17.625V1.40625H75.4252V17.5938H71.5115V17.625Z" fill="#243535"/>
<path d="M76.9281 5.65625V2.3125H90.2347V5.65625H76.9281ZM81.5306 17.625V2.3125H85.6322V17.625H81.5306Z" fill="#243535"/>
<path d="M91.8002 17.625V1.40625H95.7139V17.5938H91.8002V17.625ZM95.6826 10.6875H94.7746C94.8372 9.375 95.0877 8.3125 95.4634 7.46875C95.8392 6.625 96.3714 6.03125 96.9976 5.625C97.6238 5.21875 98.3439 5.03125 99.158 5.03125C99.9094 5.03125 100.598 5.1875 101.224 5.5C101.851 5.8125 102.32 6.3125 102.696 6.96875C103.072 7.625 103.26 8.46875 103.26 9.5V17.5938H99.3458V10.3125C99.3458 9.8125 99.2832 9.40625 99.158 9.09375C99.0328 8.78125 98.8449 8.5625 98.6257 8.40625C98.3752 8.25 98.0621 8.1875 97.6864 8.1875C97.4046 8.1875 97.1229 8.25 96.8724 8.375C96.6219 8.5 96.4027 8.65625 96.2462 8.875C96.0583 9.09375 95.9331 9.34375 95.8392 9.65625C95.7452 9.96875 95.6826 10.3125 95.6826 10.6875Z" fill="#243535"/>
<path d="M105.295 4.375V1.40625H109.208V4.375H105.295ZM105.295 17.625V5.4375H109.208V17.625H105.295Z" fill="#243535"/>
<path d="M121.263 10.2188L119.04 11.5313C119.04 10.4063 118.852 9.5625 118.507 9C118.132 8.4375 117.599 8.125 116.911 8.125C116.222 8.125 115.69 8.40625 115.345 9C114.969 9.59375 114.813 10.4375 114.813 11.5313C114.813 12.6563 115.001 13.5 115.376 14.0625C115.752 14.625 116.316 14.9375 117.067 14.9375C117.568 14.9375 117.975 14.8438 118.288 14.625C118.601 14.4062 118.852 14.0625 119.008 13.625H123.047C122.734 15.0312 122.014 16.0938 120.95 16.875C119.854 17.6562 118.539 18.0312 117.005 18.0312C115.721 18.0312 114.625 17.7812 113.686 17.25C112.746 16.7187 112.026 15.9688 111.525 15C111.024 14.0312 110.774 12.875 110.774 11.5313C110.774 10.1563 111.024 8.96875 111.525 8C112.026 7.03125 112.746 6.28125 113.654 5.78125C114.562 5.28125 115.627 5.03125 116.848 5.03125C118.1 5.03125 119.165 5.28125 120.073 5.8125C120.981 6.34375 121.67 7.09375 122.171 8.03125C122.672 9 122.922 10.125 122.922 11.4688V12.3125H112.339V10.1875H121.263V10.2188Z" fill="#243535"/>
<path d="M123.674 8.40625V5.4375H131.031V8.40625H123.674ZM125.082 5.5C125.082 4.03125 125.427 2.90625 126.084 2.15625C126.773 1.40625 127.712 1 128.902 1C129.403 1 129.842 1.03125 130.186 1.125C130.53 1.21875 130.812 1.28125 131 1.375V3.78125H130.718C129.998 3.78125 129.528 3.9375 129.309 4.21875C129.09 4.53125 128.965 4.9375 128.965 5.5V17.5938H125.051V5.5H125.082Z" fill="#243535"/>
<path d="M1.22108 20H23.9833C25.0791 20 25.6114 18.6875 24.7973 17.9688L13.4319 8.21875C12.9622 7.8125 12.2734 7.8125 11.8038 8.21875L0.438337 17.9688C-0.407026 18.6875 0.125239 20 1.22108 20Z" fill="#CBCE42"/>
<path d="M23.952 0H1.22108C0.09393 0 -0.407026 1.3125 0.407027 2.03125L11.7725 11.7812C12.2421 12.1875 12.9309 12.1875 13.4006 11.7812L24.766 2.03125C25.6114 1.3125 25.0791 0 23.952 0Z" fill="#243535"/>
<path d="M13.338 8.28125C12.8996 7.90625 12.2108 7.90625 11.7725 8.28125L9.76864 9.9375L9.6434 10.0312H15.467L13.338 8.28125Z" fill="#CBCE42"/>
</g>
<defs>
<clipPath id="clip0_36_4856">
<rect width="131" height="20" fill="white"/>
</clipPath>
</defs>
</svg>
